<svg width="103" height="88" viewBox="0 0 103 88" fill="none" xmlns="http://www.w3.org/2000/svg">
<path fill-rule="evenodd" clip-rule="evenodd" d="M74.7832 81.0848C74.0898 82.0264 73.7646 82.2254 72.8979 83.4409C71.4555 85.3027 73.2938 88.1297 74.2097 87.6846C75.2775 87.2844 75.9709 85.1529 77.1372 84.4574C77.7343 84.1364 79.3221 81.8038 80.8094 80.2181C81.903 78.9748 82.6969 78.4291 83.737 77.1408C85.4982 74.9558 85.8705 73.2952 87.4092 70.9626C88.3529 69.7471 89.0249 69.3747 89.8916 67.8853C94.4819 59.2012 93.1401 55.3085 97.5335 49.1068C98.871 47.2728 100.384 46.8255 102.518 45.7341C104.504 31.2677 97.9273 23.1807 97.9787 23.155C92.4446 26.38 89.4679 27.6961 83.737 27.3965C81.5798 27.3729 80.4371 26.4549 78.3056 26.6518C76.3176 26.7267 75.3054 27.4692 73.3173 28.1412C70.2678 29.0828 68.605 29.926 65.4057 30.9189C63.3706 31.4903 62.0802 31.5138 59.9701 32.2329C58.1597 33.0033 59.0285 32.3827 57.7638 33.8464C56.1245 35.659 56.5226 37.0714 54.9839 40.1744C53.0729 44.2426 53.2976 44.7883 54.389 45.2847C53.67 47.367 53.4966 48.758 53.67 51.0157C53.869 52.7277 53.1478 53.9175 54.9839 55.2828C57.4899 57.1425 62.75 61.5102 64.0896 61.583C66.0991 61.5102 71.9541 61.7328 74.9287 59.672C75.5985 59.2525 75.7976 58.8267 75.2283 60.4167C75.1042 60.6178 67.8089 66.2974 67.0172 66.2717C57.7381 66.5713 60.839 67.0913 60.2697 66.8688C59.7968 66.8688 55.3306 61.4075 52.6278 63.3442C51.6091 63.9648 51.1383 64.5597 50.7424 65.6789C51.0891 66.398 52.7262 67.5365 54.2413 68.4823C56.4263 69.8712 56.6232 71.335 58.806 71.855C61.4617 72.452 64.2887 72.054 65.9771 72.2787C66.6234 72.452 72.4763 70.7379 76.1228 68.7798C79.4998 67.0421 71.4855 72.1268 69.5252 74.6327C63.6188 76.4924 65.2837 76.5673 62.4782 77.1386C59.8738 77.7336 59.9979 77.5838 58.211 78.1573C56.3771 78.6024 54.8641 81.1105 56.5996 82.4244C57.6418 83.2911 60.8925 82.0756 64.0918 81.9793C65.5063 81.9536 71.2843 79.2979 72.6025 78.6024C75.8767 76.8433 78.2842 74.4101 80.2209 73.0213C82.8938 71.1616 77.1886 78.1573 74.7832 81.0848ZM56.8949 45.4324C58.8552 46.9946 59.8481 51.6598 59.8225 51.6106C63.4198 52.7512 65.701 55.133 65.701 55.133C71.2351 52.0557 71.3613 53.4446 73.7667 51.6106C75.7526 50.2453 75.6542 49.8237 76.6942 46.1793C77.6615 43.2239 74.2375 43.4978 71.4084 38.1136C66.4971 39.9733 63.8435 39.1322 62.1807 38.9824C61.436 38.884 61.558 41.8843 56.8949 45.4324ZM28.1398 7.15208C28.8353 6.15912 29.1563 5.9601 30.0508 4.7938C31.4396 2.88278 29.6292 0.0558403 28.7347 0.40252C27.6433 0.899 26.9499 3.03258 25.6338 3.7773C25.1609 4.04908 23.5751 6.38168 22.1114 8.02092C21.02 9.2129 20.226 9.7586 19.1839 11.1218C17.3991 13.2297 17.0503 14.8925 15.5116 17.1266C14.57 18.4641 13.8745 18.8129 13.0292 20.3516C8.44106 28.9865 9.75502 32.8792 5.38728 38.9846C4.04978 40.9448 2.53466 41.3664 0.401084 42.507C-1.5827 56.9477 4.96784 65.0113 4.94216 64.962C10.4741 61.8077 13.4273 60.4937 19.1839 60.6927C21.341 60.819 22.4837 61.7349 24.6173 61.5851C26.6032 61.461 27.6197 60.7184 29.6035 60.1214C32.6552 59.1049 34.3179 58.2617 37.3696 57.318C39.5524 56.6974 40.8428 56.6717 42.9507 55.8521C44.7633 55.1844 43.8944 55.805 45.1592 54.3862C46.7706 52.5265 46.4004 51.1141 47.7892 48.0881C49.8479 43.9408 49.6254 43.3994 48.534 42.9521C49.2295 40.8186 49.4263 39.4532 49.253 37.2212C49.0304 35.4835 49.7752 34.268 47.939 32.9797C45.4331 31.043 40.173 26.6774 38.859 26.6518C36.8239 26.6774 30.9688 26.4527 27.9921 28.413C27.3223 28.933 27.1233 29.3546 27.6946 27.8416C27.8188 27.5698 35.114 21.8881 35.9058 21.8132C45.1849 21.6142 42.084 21.0942 42.6554 21.3681C43.1262 21.3189 47.5924 26.7759 50.2973 24.8905C51.2881 24.2229 51.7846 23.6258 52.2083 22.5601C51.836 21.7918 50.1989 20.6469 48.6859 19.7802C46.5031 18.3186 46.2805 16.8548 44.1213 16.3819C41.4655 15.7378 38.6129 16.1337 36.9501 15.8105C36.306 15.7356 30.4488 17.4498 26.8279 19.333C23.4039 21.1455 31.4439 16.0588 33.4256 13.4544C39.3063 11.691 37.62 11.6183 40.4726 10.972C43.0534 10.4498 42.9293 10.5996 44.7162 10.0796C46.5266 9.58312 48.0632 7.10072 46.3276 5.68832C45.2619 4.89438 42.0369 6.1099 38.8612 6.13344C37.4231 6.23188 31.6408 8.88762 30.3268 9.63234C27.0526 11.3443 24.6451 13.7754 22.7106 15.0658C20.0013 17.026 25.7323 10.0539 28.1398 7.15208ZM46.028 42.8023C44.0678 41.1909 43.0748 36.5279 43.1005 36.5022C39.5032 35.4343 37.2198 33.0525 37.2198 33.1274C31.6879 36.1298 31.5402 34.741 29.1563 36.5022C27.1468 37.9424 27.2709 38.3875 26.2287 41.9121C25.2593 44.9894 28.6598 44.6898 31.5124 49.9992C36.4258 48.2101 39.0816 49.0554 40.7422 49.2523C41.4869 49.3037 41.3628 46.3012 46.028 42.8023Z" fill="#020202"/>
</svg>
